<svg xmlns="http://www.w3.org/2000/svg" viewBox="0 0 64 64" width="64" height="64">
  <defs>
    <linearGradient id="logoGradient" x1="0%" y1="0%" x2="100%" y2="100%">
      <stop offset="0%" style="stop-color:#3B82F6;stop-opacity:1" />
      <stop offset="100%" style="stop-color:#1D4ED8;stop-opacity:1" />
    </linearGradient>
    <filter id="shadow" x="-20%" y="-20%" width="140%" height="140%">
      <feDropShadow dx="2" dy="2" stdDeviation="2" flood-color="#00000020"/>
    </filter>
  </defs>

  <!-- Main chat bubble -->
  <path d="M12 16c-2.2 0-4 1.8-4 4v16c0 2.2 1.8 4 4 4h24l8 8V20c0-2.2-1.8-4-4-4H12z"
        fill="url(#logoGradient)"
        stroke="#1E40AF"
        stroke-width="2"
        rx="8"
        filter="url(#shadow)"/>

  <!-- Lightning bolt -->
  <path d="M32 24l-4 8h4l-2 8 8-12h-4l2-4z"
        fill="#FFFFFF"
        stroke="#FFFFFF"
        stroke-width="1"
        stroke-linejoin="round"/>

  <!-- Signal waves -->
  <path d="M44 32c0-3-3-5-5-5s-5 2-5 5 2 5 5 5 5-2 5-5z"
        fill="none"
        stroke="#60A5FA"
        stroke-width="2.5"
        opacity="0.8"/>
  <path d="M50 32c0-5-5-8-8-8s-8 3-8 8 3 8 8 8 8-3 8-8z"
        fill="none"
        stroke="#93C5FD"
        stroke-width="1.5"
        opacity="0.6"/>
  <path d="M56 32c0-7-7-12-12-12s-12 5-12 12 5 12 12 12 12-5 12-12z"
        fill="none"
        stroke="#BFDBFE"
        stroke-width="1"
        opacity="0.4"/>
</svg>